<?xml version="1.0" standalone="no"?>
<!DOCTYPE svg PUBLIC "-//W3C//DTD SVG 20010904//EN"
 "http://www.w3.org/TR/2001/REC-SVG-20010904/DTD/svg10.dtd">
<svg version="1.0" xmlns="http://www.w3.org/2000/svg"
 width="100.000000pt" height="100.000000pt" viewBox="0 0 100.000000 100.000000"
 preserveAspectRatio="xMidYMid meet">
<metadata>
Created by potrace 1.11, written by Peter Selinger 2001-2013
</metadata>
<g transform="translate(0.000000,100.000000) scale(0.100000,-0.100000)"
fill="#000000" stroke="none">
<path d="M470 879 c0 -5 -4 -8 -9 -4 -5 3 -12 1 -16 -5 -4 -6 -11 -8 -16 -5
-5 4 -9 1 -9 -4 0 -6 -3 -10 -7 -9 -5 2 -57 -17 -118 -42 -60 -25 -112 -45
-115 -46 -3 0 -18 -6 -33 -12 -16 -7 -33 -12 -38 -12 -5 0 -9 -5 -9 -11 0 -5
-4 -7 -10 -4 -5 3 -10 1 -10 -5 0 -6 -4 -8 -10 -5 -13 8 -70 -23 -70 -38 0 -9
2 -9 8 1 9 13 42 6 42 -9 0 -5 3 -8 8 -7 4 1 23 -4 42 -11 19 -8 38 -13 43
-12 4 0 7 -4 7 -10 0 -6 6 -9 13 -6 6 2 28 -5 47 -16 19 -10 41 -21 50 -23 27
-6 225 -89 230 -96 3 -4 17 -2 30 5 14 7 27 14 30 14 15 4 68 26 118 50 31 14
63 28 70 29 8 1 30 11 50 20 20 10 40 19 45 20 4 1 8 2 10 4 1 1 11 3 21 5 10
2 23 10 27 17 5 7 9 10 9 5 0 -4 13 -1 30 8 16 8 32 15 35 15 18 -1 17 3 -4
20 -12 11 -27 18 -31 15 -4 -3 -13 2 -20 10 -6 7 -18 11 -26 8 -8 -3 -14 0
-14 6 0 6 -7 11 -15 11 -8 0 -23 4 -33 9 -15 9 -49 22 -62 25 -3 1 -15 7 -27
14 -13 7 -23 10 -23 6 0 -3 -6 -1 -14 5 -8 7 -22 14 -32 16 -25 5 -133 50
-141 59 -10 10 -53 7 -53 -5z"/>
<path d="M106 553 c-3 -4 -14 -8 -24 -9 -9 -2 -18 -7 -20 -13 -2 -5 -9 -8 -15
-5 -7 2 -21 -2 -32 -11 -16 -12 -17 -14 -2 -9 9 3 17 2 17 -4 0 -9 37 -25 53
-23 4 1 7 -4 7 -10 0 -5 5 -7 10 -4 6 3 10 1 10 -4 0 -6 6 -11 13 -11 7 0 37
-11 65 -25 28 -14 57 -26 64 -27 7 -2 19 -9 26 -16 8 -7 18 -10 23 -7 5 4 9 1
9 -4 0 -6 3 -10 8 -9 4 1 24 -5 45 -15 20 -9 54 -25 75 -34 20 -10 40 -17 44
-18 3 0 9 -3 13 -7 8 -7 137 50 147 66 4 6 8 7 8 2 0 -5 6 -3 13 3 8 6 17 8
20 4 4 -3 7 -1 7 6 0 7 7 11 15 8 8 -4 17 -2 20 3 5 8 109 59 120 59 3 0 18 7
33 16 34 19 85 39 95 37 4 -1 7 3 7 9 0 5 -21 19 -47 31 l-47 20 -50 -21 c-28
-12 -60 -24 -70 -26 -11 -3 -23 -10 -26 -16 -4 -6 -10 -10 -14 -10 -8 1 -36
-9 -76 -27 -19 -8 -41 -15 -47 -15 -7 0 -13 -3 -13 -7 0 -9 -81 -34 -100 -31
-8 1 -26 10 -40 19 -14 9 -29 17 -35 17 -5 1 -21 6 -35 12 -47 21 -85 34 -86
31 -1 -2 -11 6 -23 16 -12 11 -21 16 -21 13 0 -3 -30 7 -66 23 -75 34 -68 32
-78 23z"/>
<path d="M97 369 c-9 -6 -22 -7 -27 -4 -6 3 -10 1 -10 -4 0 -6 -6 -11 -13 -11
-7 0 -22 -7 -33 -16 -10 -8 -13 -12 -5 -8 7 3 16 3 20 -2 5 -8 57 -36 71 -39
3 0 31 -13 64 -28 32 -15 64 -27 71 -27 8 0 15 -5 17 -11 2 -5 10 -11 18 -13
20 -4 85 -32 133 -56 22 -11 44 -20 50 -20 6 0 19 -8 29 -17 15 -14 21 -14 27
-4 5 7 10 12 12 11 6 -2 46 14 129 52 42 20 85 38 98 42 12 4 22 12 22 17 0 5
6 9 13 7 6 -1 35 10 63 25 28 14 54 23 58 20 3 -4 6 -1 6 5 0 6 16 16 35 22
19 6 38 16 42 22 4 7 0 9 -10 5 -10 -4 -17 -1 -17 5 0 6 -3 8 -7 5 -3 -4 -13
-1 -21 5 -27 22 -60 19 -139 -16 -43 -19 -85 -36 -93 -38 -8 -2 -21 -9 -28
-16 -8 -7 -17 -10 -22 -7 -5 3 -11 1 -15 -5 -3 -5 -15 -10 -26 -10 -10 0 -19
-4 -19 -10 0 -5 -7 -10 -15 -10 -9 0 -29 -7 -45 -15 -19 -10 -31 -11 -35 -5
-4 6 -11 8 -16 5 -5 -4 -9 -1 -9 5 0 6 -4 9 -9 5 -5 -3 -12 -1 -16 5 -4 6 -11
8 -16 5 -5 -4 -9 -2 -9 3 0 6 -11 13 -25 16 -27 7 -141 56 -188 81 -19 10 -26
11 -21 2 4 -6 -1 -5 -12 4 -27 23 -56 30 -77 18z"/>
</g>
</svg>
